<?xml version="1.0" standalone="no"?>
<!DOCTYPE svg PUBLIC "-//W3C//DTD SVG 20010904//EN"
 "http://www.w3.org/TR/2001/REC-SVG-20010904/DTD/svg10.dtd">
<svg version="1.0" xmlns="http://www.w3.org/2000/svg"
 width="360.000000pt" height="305.000000pt" viewBox="0 0 360.000000 305.000000"
 preserveAspectRatio="xMidYMid meet">

<g transform="translate(0.000000,305.000000) scale(0.100000,-0.100000)"
fill="#000000" stroke="none">
<path d="M1552 2899 c-577 -67 -996 -497 -1083 -1110 -18 -132 -14 -375 10
-509 74 -423 309 -757 655 -932 106 -53 264 -104 373 -120 112 -16 370 -16
448 1 245 50 476 172 640 337 230 231 356 538 379 927 l6 97 -609 0 -609 0
-120 34 c-251 73 -369 133 -463 235 -67 73 -104 144 -125 239 -44 211 8 397
150 537 83 82 171 132 301 171 79 23 107 27 230 27 175 0 259 -17 385 -79 75
-38 109 -62 170 -123 119 -120 169 -234 179 -411 l6 -105 173 -9 c180 -9 222
-3 222 29 0 30 -61 149 -124 244 -73 109 -225 263 -326 329 -243 160 -552 228
-868 191z m-424 -237 c-110 -119 -162 -257 -161 -427 0 -180 38 -290 140 -407
88 -102 162 -148 333 -209 l105 -38 -260 -1 c-143 0 -265 -4 -272 -8 -29 -19
-83 -191 -103 -327 -21 -153 0 -408 45 -538 24 -71 99 -200 134 -231 12 -11
21 -23 21 -28 0 -20 -154 99 -230 178 -205 214 -314 474 -340 810 -41 540 164
995 558 1236 42 26 79 48 81 48 2 0 -21 -26 -51 -58z m1364 -97 c97 -82 196
-206 254 -317 l45 -88 -124 0 -124 0 -6 103 c-4 62 -15 126 -27 162 -21 61
-71 157 -98 188 -33 37 7 14 80 -48z m-610 -1079 c271 -82 340 -116 440 -218
100 -101 141 -211 142 -378 1 -243 -120 -430 -344 -533 -114 -52 -230 -70
-420 -64 -145 4 -175 8 -245 31 -89 30 -143 59 -224 120 -235 176 -327 626
-205 997 l27 79 358 0 358 0 113 -34z m1018 -25 c0 -82 -34 -271 -65 -365 -64
-188 -161 -349 -290 -479 -108 -108 -118 -111 -73 -19 58 118 71 185 65 327
-8 174 -43 266 -142 373 -75 81 -141 124 -270 177 l-110 44 443 1 442 0 0 -59z"/>
</g>
</svg>
